<svg width="27" height="28" viewBox="0 0 27 28" fill="none" xmlns="http://www.w3.org/2000/svg">
<path id="Vector" d="M25.1915 11.5983L26.5641 12.9499C27.1453 13.5222 27.1453 14.4476 26.5641 15.0138L14.5511 26.8495C13.9699 27.4218 13.0301 27.4218 12.4551 26.8495L0.435883 15.0138C-0.145294 14.4415 -0.145294 13.5161 0.435883 12.9499L1.80845 11.5983C2.39581 11.0199 3.35413 11.032 3.92913 11.6226L11.0269 18.959V1.4612C11.0269 0.651451 11.6885 0 12.5108 0H14.4892C15.3115 0 15.9731 0.651451 15.9731 1.4612V18.959L23.0709 11.6226C23.6459 11.026 24.6042 11.0138 25.1915 11.5983Z" fill="#FFFF00"/>
</svg>
